<svg width="31" height="20" xmlns="http://www.w3.org/2000/svg" xmlns:xlink="http://www.w3.org/1999/xlink" xmlns:svgjs="http://svgjs.com/svgjs" viewBox="0 0.185 31 19.63"><svg xmlns="http://www.w3.org/2000/svg" width="31" height="20" viewBox="1.985 1.993 29.992 18.992" fill="#fff"><path fill="#FFF" paint-order="stroke fill markers" fill-rule="evenodd" d="M6.087 10.5l11.895 7.778c.938.613.938 1.608 0 2.222-.939.614-2.46.614-3.399 0L2.69 12.722c-.938-.614-.938-1.609 0-2.223.938-.613 2.46-.613 3.398 0zm21.76-.047l-11.974 7.83c-.945.619-.945 1.62 0 2.238.945.618 2.476.618 3.421 0l11.975-7.83c.944-.618.944-1.62 0-2.238-.945-.617-2.477-.617-3.422 0zm-18.85-8.09L17.72 8.02c.688.446.688 1.17 0 1.616-.688.447-1.804.447-2.492 0L6.505 3.98c-.688-.446-.688-1.17 0-1.616.688-.446 1.804-.446 2.492 0zm15.958-.033l-8.781 5.694c-.693.45-.693 1.178 0 1.628.692.45 1.816.45 2.508 0l8.782-5.695c.693-.45.693-1.178 0-1.627-.693-.45-1.817-.45-2.51 0z"/></svg></svg>